<?xml version="1.0" encoding="utf-8"?>
<!-- Generator: Adobe Illustrator 20.1.0, SVG Export Plug-In . SVG Version: 6.00 Build 0)  -->
<svg version="1.1" id="Layer_1" xmlns="http://www.w3.org/2000/svg" xmlns:xlink="http://www.w3.org/1999/xlink" x="0px" y="0px"
	 viewBox="0 0 3769 900" style="enable-background:new 0 0 3769 900;" xml:space="preserve">
<style type="text/css">
	.st0{fill:url(#SVGID_1_);}
	.st1{fill:url(#SVGID_2_);}
	.st2{fill:url(#SVGID_3_);}
	.st3{fill:url(#SVGID_4_);}
</style>
<g>
	
		<linearGradient id="SVGID_1_" gradientUnits="userSpaceOnUse" x1="192.4968" y1="-7143.1323" x2="3150.0198" y2="-7143.1323" gradientTransform="matrix(-0.4158 0.9094 -0.9094 -0.4158 -5830.8159 -2980.6704)">
		<stop  offset="0" style="stop-color:#E7EFF1"/>
		<stop  offset="0.2572" style="stop-color:#E3EAEC"/>
		<stop  offset="0.5506" style="stop-color:#D6DDDF"/>
		<stop  offset="0.8606" style="stop-color:#C0C7C8"/>
		<stop  offset="1" style="stop-color:#B4BBBB"/>
	</linearGradient>
	<circle class="st0" cx="450" cy="460" r="324.9"/>
	<g>
		
			<linearGradient id="SVGID_2_" gradientUnits="userSpaceOnUse" x1="1714.7106" y1="1520.6718" x2="859.5818" y2="798.6686" gradientTransform="matrix(0.8864 0.4629 -0.4629 0.8864 -206.994 -1292.9984)">
			<stop  offset="0" style="stop-color:#0F6EA8"/>
			<stop  offset="0.1103" style="stop-color:#1680B8"/>
			<stop  offset="0.2991" style="stop-color:#2199CF"/>
			<stop  offset="0.4709" style="stop-color:#27A9DC"/>
			<stop  offset="0.6091" style="stop-color:#29AEE1"/>
			<stop  offset="0.6938" style="stop-color:#2CBAEA"/>
			<stop  offset="0.7749" style="stop-color:#2EC0EE"/>
			<stop  offset="1" style="stop-color:#34A5DB"/>
		</linearGradient>
		<circle class="st1" cx="450" cy="460" r="294.8"/>
	</g>
	
		<linearGradient id="SVGID_3_" gradientUnits="userSpaceOnUse" x1="2162.7915" y1="-10381.9736" x2="4698.8384" y2="-10381.9736" gradientTransform="matrix(0.5588 0.8293 -0.8293 0.5588 -9524.0391 4236.7749)">
		<stop  offset="0" style="stop-color:#E7EFF1"/>
		<stop  offset="0.2572" style="stop-color:#E3EAEC"/>
		<stop  offset="0.5506" style="stop-color:#D6DDDF"/>
		<stop  offset="0.8606" style="stop-color:#C0C7C8"/>
		<stop  offset="1" style="stop-color:#B4BBBB"/>
	</linearGradient>
	<circle class="st2" cx="450" cy="460" r="278.6"/>
	<linearGradient id="SVGID_4_" gradientUnits="userSpaceOnUse" x1="860.1125" y1="1016.9078" x2="-262.9327" y2="-413.9195">
		<stop  offset="0" style="stop-color:#0F6EA8"/>
		<stop  offset="0.1103" style="stop-color:#1680B8"/>
		<stop  offset="0.2991" style="stop-color:#2199CF"/>
		<stop  offset="0.4709" style="stop-color:#27A9DC"/>
		<stop  offset="0.6091" style="stop-color:#29AEE1"/>
		<stop  offset="0.6938" style="stop-color:#2CBAEA"/>
		<stop  offset="0.7749" style="stop-color:#2EC0EE"/>
		<stop  offset="1" style="stop-color:#34A5DB"/>
	</linearGradient>
	<polygon class="st3" points="429,249.9 366,291.9 366,333.9 408,333.9 408,610.8 354,610.8 354,670.1 366,670.1 534,670.1 
		546,670.1 546,610.8 492,610.8 492,249.9 	"/>
</g>
<g>
	<path d="M948.1,459.3v-0.9c0-84.8,63.9-154.2,155.5-154.2c56.2,0,89.9,18.7,117.6,46l-41.7,48.1c-23-20.9-46.4-33.7-76.3-33.7
		c-50.3,0-86.5,41.7-86.5,92.9v0.9c0,51.1,35.4,93.7,86.5,93.7c34.1,0,55-13.6,78.4-34.9l41.7,42.2c-30.7,32.8-64.8,53.3-122.3,53.3
		C1013.3,612.7,948.1,545,948.1,459.3z"/>
	<path d="M1255.3,542v-0.9c0-49.8,37.9-72.8,92-72.8c23,0,39.6,3.8,55.8,9.4v-3.8c0-26.8-16.6-41.7-49-41.7
		c-24.7,0-42.2,4.7-63,12.4l-16.2-49.4c25.1-11.1,49.8-18.3,88.6-18.3c35.4,0,60.9,9.4,77.1,25.6c17,17,24.7,42.2,24.7,72.8v132.5
		h-62.6v-24.7c-15.8,17.5-37.5,29-69,29C1290.6,611.8,1255.3,587.1,1255.3,542z M1403.9,527.1v-11.5c-11.1-5.1-25.6-8.5-41.3-8.5
		c-27.7,0-44.7,11.1-44.7,31.5v0.9c0,17.5,14.5,27.7,35.4,27.7C1383.5,567.1,1403.9,550.5,1403.9,527.1z"/>
	<path d="M1521.1,379.2h64.8V412c15.8-21.3,37.5-37.1,71.1-37.1c53.3,0,103.9,41.7,103.9,118v0.9c0,76.3-49.8,118-103.9,118
		c-34.5,0-55.8-15.8-71.1-34.1v98h-64.8V379.2z M1696.2,493.8V493c0-37.9-25.6-63-55.8-63c-30.2,0-55.4,25.1-55.4,63v0.9
		c0,37.9,25.1,63,55.4,63C1670.6,556.9,1696.2,532.2,1696.2,493.8z"/>
	<path d="M1819.3,542.8V434.6H1792v-55.4h27.3v-58.4h64.8v58.4h53.7v55.4H1884v97.6c0,14.9,6.4,22.2,20.9,22.2
		c11.9,0,22.6-3,31.9-8.1v52c-13.6,8.1-29.4,13.2-51.1,13.2C1846.1,611.4,1819.3,595.6,1819.3,542.8z"/>
	<path d="M1983.7,527.1V379.2h64.8v127.4c0,30.7,14.5,46.4,39.2,46.4c24.7,0,40.5-15.8,40.5-46.4V379.2h64.8v228.3h-64.8v-32.4
		c-14.9,19.2-34.1,36.6-66.9,36.6C2012.2,611.8,1983.7,579.5,1983.7,527.1z"/>
	<path d="M2250.8,379.2h64.8v46c13.2-31.5,34.5-52,72.8-50.3v67.7h-3.4c-43,0-69.4,26-69.4,80.5v84.3h-64.8V379.2z"/>
	<path d="M2411.4,494.7v-0.9c0-65.2,46.4-118.9,112.9-118.9c76.3,0,111.2,59.2,111.2,124c0,5.1-0.4,11.1-0.9,17h-158.9
		c6.4,29.4,26.8,44.7,55.8,44.7c21.7,0,37.5-6.8,55.4-23.4l37.1,32.8c-21.3,26.4-52,42.6-93.3,42.6
		C2462.1,612.7,2411.4,564.5,2411.4,494.7z M2572.4,475.5c-3.8-29-20.9-48.6-48.1-48.6c-26.8,0-44.3,19.2-49.4,48.6H2572.4z"/>
	<path d="M2805,459.3v-0.9c0-84.8,66.9-154.2,158.9-154.2c92,0,158,68.6,158,153.4v0.9c0,84.8-66.9,154.2-158.9,154.2
		C2871,612.7,2805,544.1,2805,459.3z M3053.4,459.3v-0.9c0-51.1-37.5-93.7-90.3-93.7c-52.8,0-89.5,41.7-89.5,92.9v0.9
		c0,51.1,37.5,93.7,90.3,93.7C3016.7,552.2,3053.4,510.4,3053.4,459.3z"/>
	<path d="M3173.5,379.2h64.8v32.4c14.9-19.2,34.1-36.6,66.9-36.6c49,0,77.5,32.4,77.5,84.8v147.8h-64.8V480.2
		c0-30.7-14.5-46.4-39.2-46.4c-24.7,0-40.5,15.8-40.5,46.4v127.4h-64.8V379.2z"/>
	<path d="M3427.8,494.7v-0.9c0-65.2,46.4-118.9,112.9-118.9c76.3,0,111.2,59.2,111.2,124c0,5.1-0.4,11.1-0.9,17h-158.9
		c6.4,29.4,26.8,44.7,55.8,44.7c21.7,0,37.5-6.8,55.4-23.4l37.1,32.8c-21.3,26.4-52,42.6-93.3,42.6
		C3478.5,612.7,3427.8,564.5,3427.8,494.7z M3588.8,475.5c-3.8-29-20.9-48.6-48.1-48.6c-26.8,0-44.3,19.2-49.4,48.6H3588.8z"/>
</g>
</svg>
